<?xml version="1.0" encoding="UTF-8" standalone="no"?>
<!-- Created with Inkscape (http://www.inkscape.org/) -->

<svg
   xmlns:dc="http://purl.org/dc/elements/1.1/"
   xmlns:cc="http://creativecommons.org/ns#"
   xmlns:rdf="http://www.w3.org/1999/02/22-rdf-syntax-ns#"
   xmlns:svg="http://www.w3.org/2000/svg"
   xmlns="http://www.w3.org/2000/svg"
   xmlns:sodipodi="http://sodipodi.sourceforge.net/DTD/sodipodi-0.dtd"
   xmlns:inkscape="http://www.inkscape.org/namespaces/inkscape"
   version="1.1"
   id="svg2"
   xml:space="preserve"
   width="351.11066"
   height="95.111069"
   viewBox="0 0 351.11066 95.111069"
   sodipodi:docname="coroona_logo.svg"
   inkscape:version="0.92.5 (2060ec1f9f, 2020-04-08)"><metadata
     id="metadata8"><rdf:RDF><cc:Work
         rdf:about=""><dc:format>image/svg+xml</dc:format><dc:type
           rdf:resource="http://purl.org/dc/dcmitype/StillImage" /><dc:title></dc:title></cc:Work></rdf:RDF></metadata><defs
     id="defs6"><clipPath
       clipPathUnits="userSpaceOnUse"
       id="clipPath22"><path
         d="M 0,71.333 H 263.333 V 0 H 0 Z"
         id="path20"
         inkscape:connector-curvature="0" /></clipPath><clipPath
       clipPathUnits="userSpaceOnUse"
       id="clipPath62"><path
         d="M 0,71.333 H 263.333 V 0 H 0 Z"
         id="path60"
         inkscape:connector-curvature="0" /></clipPath></defs><sodipodi:namedview
     pagecolor="#ffffff"
     bordercolor="#666666"
     borderopacity="1"
     objecttolerance="10"
     gridtolerance="10"
     guidetolerance="10"
     inkscape:pageopacity="0"
     inkscape:pageshadow="2"
     inkscape:window-width="774"
     inkscape:window-height="480"
     id="namedview4"
     showgrid="false"
     inkscape:zoom="0.97405189"
     inkscape:cx="175.55533"
     inkscape:cy="47.555534"
     inkscape:window-x="2228"
     inkscape:window-y="164"
     inkscape:window-maximized="0"
     inkscape:current-layer="g10" /><g
     id="g10"
     inkscape:groupmode="layer"
     inkscape:label="coroona_logo"
     transform="matrix(1.3333333,0,0,-1.3333333,0,95.111067)"><g
       id="g12"
       transform="translate(232.7406,37.3077)"><path
         d="m 0,0 -5.972,-5.703 -2.133,2.937 -2.184,-3.727 -0.563,-4.23 -3.726,6.887 -2.144,1.519 -2.172,-2.258 -2.18,-2.628 -2.16,-0.805 2.16,0.805 -1.56,-3.317 -6.5,22.079 -2.694,-16.255 -2.16,-0.504 -2.16,-0.382 -2.121,4.121 -2.157,-0.075 -2.171,-1.957 -2.165,-1.039 -2.136,1.93 -2.164,-0.863 -2.157,0.086 -2.144,0.91 -2.199,-5.36 -2.16,-0.355 -2.176,-2.602 -2.133,2.903 -2.043,8.004 -3,-13.095 -1.418,5.743 -2.117,4.391 -2.156,-0.129 -2.176,-2.281 -2.153,0.355 -2.152,0.203 -2.125,3.703 -4.363,-6.281 -2.137,2.481 -2.133,2.8 -2.168,-1.793 -2.136,2.485 -2.406,-9.426 -1.911,8.523 -2.152,0.52 -2.164,-1.008 -2.16,-0.781 -2.168,-1.457 -2.153,0.273 -2.156,-0.07 -1.829,-6.063 -2.483,6.098 -2.153,0.211 -2.031,4.863 -2.273,-4.265 -2.157,0.125 -2.57,-6.969 -1.723,8.906 -2.164,-0.859 -2.16,-0.453 -2.187,-3.957 -2.141,1.488 -2.16,-0.301 -2.137,2.238 -2.152,0.125 -2.133,3.012 -0.585,-10.262 -3.755,6.583 -2.152,0.343 -4.297,1.633 -2.188,-3.602 -2.144,1.204 -2.149,0.785 -1.273,10.254 -8,-17.137 0.68,10.141 -2.141,1.867 -1.539,6.285 -2.781,-7.137 -1.719,-8.074 -2.582,9 -2.16,-0.648 -10.895,-6.012"
         style="fill:none;stroke:#ed1c24;stroke-width:1.91100001;stroke-linecap:square;stroke-linejoin:round;stroke-miterlimit:10;stroke-dasharray:none;stroke-opacity:1"
         id="path14"
         inkscape:connector-curvature="0" /></g><g
       id="g16"><g
         id="g18"
         clip-path="url(#clipPath22)"><g
           id="g24"
           transform="translate(236.5766,37.3077)"><path
             d="m 0,0 c 0,-2.118 -1.719,-3.832 -3.832,-3.832 -2.117,0 -3.836,1.714 -3.836,3.832 0,2.117 1.719,3.836 3.836,3.836 C -1.719,3.836 0,2.117 0,0"
             style="fill:#ed1c24;fill-opacity:1;fill-rule:nonzero;stroke:none"
             id="path26"
             inkscape:connector-curvature="0" /></g><g
           id="g28"
           transform="translate(236.5766,37.3077)"><path
             d="m 0,0 c 0,-2.118 -1.719,-3.832 -3.832,-3.832 -2.117,0 -3.836,1.714 -3.836,3.832 0,2.117 1.719,3.836 3.836,3.836 C -1.719,3.836 0,2.117 0,0 Z"
             style="fill:none;stroke:#ed1c24;stroke-width:0.287;stroke-linecap:square;stroke-linejoin:round;stroke-miterlimit:10;stroke-dasharray:none;stroke-opacity:1"
             id="path30"
             inkscape:connector-curvature="0" /></g><g
           id="g32"
           transform="translate(247.8857,37.3077)"><path
             d="M 0,0 C 0,8.363 -6.781,15.14 -15.141,15.14"
             style="fill:none;stroke:#1d6434;stroke-width:2;stroke-linecap:butt;stroke-linejoin:miter;stroke-miterlimit:10;stroke-dasharray:none;stroke-opacity:1"
             id="path34"
             inkscape:connector-curvature="0" /></g><g
           id="g36"
           transform="translate(244.1007,37.3077)"><path
             d="M 0,0 C 0,6.273 -5.086,11.355 -11.36,11.355"
             style="fill:none;stroke:#1d6434;stroke-width:1.14999998;stroke-linecap:butt;stroke-linejoin:miter;stroke-miterlimit:10;stroke-dasharray:none;stroke-opacity:1"
             id="path38"
             inkscape:connector-curvature="0" /></g><g
           id="g40"
           transform="translate(244.1007,37.3077)"><path
             d="M 0,0 C 0,6.273 -5.086,11.355 -11.36,11.355"
             style="fill:none;stroke:#1d6434;stroke-width:2;stroke-linecap:butt;stroke-linejoin:miter;stroke-miterlimit:10;stroke-dasharray:none;stroke-opacity:1"
             id="path42"
             inkscape:connector-curvature="0" /></g><g
           id="g44"
           transform="translate(240.3147,37.3077)"><path
             d="M 0,0 C 0,4.183 -3.39,7.57 -7.574,7.57"
             style="fill:none;stroke:#1d6434;stroke-width:2;stroke-linecap:butt;stroke-linejoin:miter;stroke-miterlimit:10;stroke-dasharray:none;stroke-opacity:1"
             id="path46"
             inkscape:connector-curvature="0" /></g><text
           transform="matrix(1,0,0,-1,75.6699,43.8794)"
           style="font-variant:normal;font-weight:bold;font-stretch:normal;font-size:37px;font-family:'Adobe Caslon Pro Bold';-inkscape-font-specification:ACaslonPro-Bold;writing-mode:lr-tb;fill:#231f20;fill-opacity:1;fill-rule:nonzero;stroke:none"
           id="text50"><tspan
             x="0 16.132 35.556999 49.098999 59.459 78.884003 99.789001"
             y="0"
             sodipodi:role="line"
             id="tspan48">cor:ona</tspan></text>
</g></g><text
       transform="matrix(1,0,0,-1,44.0664,14.668)"
       style="font-variant:normal;font-weight:bold;font-stretch:normal;font-size:10px;font-family:'Adobe Caslon Pro Bold';-inkscape-font-specification:ACaslonPro-Bold;writing-mode:lr-tb;fill:#231f20;fill-opacity:1;fill-rule:nonzero;stroke:none"
       id="text54"><tspan
         x="0 4.3600001 9.6099997 17.84 23.23 27.790001 31.450001 34.349998 38.23 43.48 49.130001 51.130001 56.380001 59.639999 61.639999 65.300003 70.900002 75.32 78.730003 84.330002 92.559998 96.440002 99.239998 101.24 106.49 109.39 114.77 116.77 121.51 125.39 128.19 130.19 135.84 140.35001 147.17 149.17 153.73 158.09 161.5 164.39999 169.14 172.03999 175.45"
         y="0"
         sodipodi:role="line"
         id="tspan52">comparison of rhythms: old vs. new activity</tspan></text>
<g
       id="g56"><g
         id="g58"
         clip-path="url(#clipPath62)"><g
           id="g64"
           transform="translate(37.0296,37.4287)"><path
             d="m 0,0 c 2.996,0 5.422,-2.426 5.422,-5.422 0,-2.992 -2.426,-5.422 -5.422,-5.422 -2.992,0 -5.418,2.43 -5.418,5.422 C -5.418,-2.426 -2.992,0 0,0"
             style="fill:#ed1c24;fill-opacity:1;fill-rule:nonzero;stroke:none"
             id="path66"
             inkscape:connector-curvature="0" /></g><g
           id="g68"
           transform="translate(37.0296,37.4287)"><path
             d="m 0,0 c 2.996,0 5.422,-2.426 5.422,-5.422 0,-2.992 -2.426,-5.422 -5.422,-5.422 -2.992,0 -5.418,2.43 -5.418,5.422 C -5.418,-2.426 -2.992,0 0,0 Z"
             style="fill:none;stroke:#ed1c24;stroke-width:0.40700001;stroke-linecap:square;stroke-linejoin:round;stroke-miterlimit:10;stroke-dasharray:none;stroke-opacity:1"
             id="path70"
             inkscape:connector-curvature="0" /></g><g
           id="g72"
           transform="translate(37.0296,53.4207)"><path
             d="M 0,0 C -11.824,0 -21.41,-9.59 -21.41,-21.414"
             style="fill:none;stroke:#1d6434;stroke-width:3;stroke-linecap:butt;stroke-linejoin:miter;stroke-miterlimit:10;stroke-dasharray:none;stroke-opacity:1"
             id="path74"
             inkscape:connector-curvature="0" /></g><g
           id="g76"
           transform="translate(37.0296,48.0647)"><path
             d="M 0,0 C -8.867,0 -16.058,-7.187 -16.058,-16.058"
             style="fill:none;stroke:#1d6434;stroke-width:1.62600005;stroke-linecap:butt;stroke-linejoin:miter;stroke-miterlimit:10;stroke-dasharray:none;stroke-opacity:1"
             id="path78"
             inkscape:connector-curvature="0" /></g><g
           id="g80"
           transform="translate(37.0296,48.0647)"><path
             d="M 0,0 C -8.867,0 -16.058,-7.187 -16.058,-16.058"
             style="fill:none;stroke:#1d6434;stroke-width:3;stroke-linecap:butt;stroke-linejoin:miter;stroke-miterlimit:10;stroke-dasharray:none;stroke-opacity:1"
             id="path82"
             inkscape:connector-curvature="0" /></g><g
           id="g84"
           transform="translate(37.0296,42.7137)"><path
             d="M 0,0 C -5.91,0 -10.703,-4.793 -10.703,-10.707"
             style="fill:none;stroke:#1d6434;stroke-width:3;stroke-linecap:butt;stroke-linejoin:miter;stroke-miterlimit:10;stroke-dasharray:none;stroke-opacity:1"
             id="path86"
             inkscape:connector-curvature="0" /></g></g></g></g></svg>